<svg xmlns="http://www.w3.org/2000/svg" viewBox="0 0 512 512" width="512" height="512" role="img" aria-label="Tempest">
  <defs>
    <linearGradient id="slime" x1="0" y1="0" x2="0" y2="1">
      <stop offset="0" stop-color="#8fe7df"/>
      <stop offset="1" stop-color="#2f9aa0"/>
    </linearGradient>
  </defs>
  <rect width="512" height="512" rx="104" fill="#0e0b1a"/>
  <rect x="14" y="14" width="484" height="484" rx="92" fill="none" stroke="#2a2440" stroke-width="6"/>
  <path d="M256 168c-74 0-126 92-126 176 0 30 28 46 126 46s126-16 126-46c0-84-52-176-126-176z" fill="url(#slime)"/>
  <ellipse cx="216" cy="318" rx="17" ry="21" fill="#0e0b1a"/>
  <ellipse cx="296" cy="318" rx="17" ry="21" fill="#0e0b1a"/>
  <circle cx="222" cy="311" r="5" fill="#eafffb"/>
  <circle cx="302" cy="311" r="5" fill="#eafffb"/>
  <path d="M182 170l22-58 52 40 52-40 22 58z" fill="#ffb454" stroke="#caa044" stroke-width="6" stroke-linejoin="round"/>
  <circle cx="204" cy="112" r="9" fill="#ffd98a"/>
  <circle cx="308" cy="112" r="9" fill="#ffd98a"/>
  <circle cx="256" cy="92" r="10" fill="#ffd98a"/>
</svg>
